<svg id="Layer_1" xmlns="http://www.w3.org/2000/svg" viewBox="0 0 223.2 57.6"><style>.st1{fill:#002169}.st3{fill:#fff}</style><path d="M128.2 15.6h17.6-17.6z"/><path d="M8.6 54.1c-1.7.1-3.4-.7-4.3-2.1-.9-1.8-.9-4 .2-5.7L23 10.5c1.9-3.9 6.7-7 10.6-7h181c1.7-.1 3.4.7 4.4 2.1.9 1.8.9 4-.1 5.7l-18.5 35.8c-1.9 3.9-6.6 7-10.6 7H8.6z" fill="#e1251b"/><path class="st1" d="M192.4 40.1c-1.2 0-2.1 1-2.1 2.1 0 1.2 1 2.1 2.1 2.1s2.1-1 2.1-2.1-.9-2.1-2.1-2.1zm0 3.9c-.9 0-1.7-.8-1.7-1.7 0-.9.8-1.7 1.7-1.7.9 0 1.7.8 1.7 1.7 0 .9-.7 1.6-1.7 1.7z"/><path class="st1" d="M193.2 41.9c0-.1 0-.2-.1-.3-.1-.1-.2-.2-.3-.2-.2-.1-.4-.1-.6-.1h-.6v2h.4v-.8h.4l.4.8h.4l-.4-.9c.1 0 .2-.1.3-.2.1-.1.1-.2.1-.3zm-.5.2c-.1.1-.2.1-.3.1h-.4v-.5h.3c.1 0 .2 0 .3.1.1 0 .1.1.1.2.1-.1 0 0 0 .1zM195.4 22.9c-1.1-1.9-4.2-3.8-9.1-3.8h-.1c-4.1 0-8.1 1.4-11.4 3.9l-.3-.6c-1.6-2.7-5.2-3.1-8.1-3.1-2.4-.1-4.8.3-7.1 1l-.5-.1c-2.1-.8-4.3-1.2-6.5-1.1-.9 0-1.8.1-2.7.2h-2.9l3.5-6.4H122l-3.9 7.2c-1.3-.5-2.6-.7-4-.7-4.7 0-9.3 1.8-12.7 5-.1-.4-.3-.7-.5-1.1-1.7-2.9-5.3-3.9-8.1-3.9-4.3 0-8.4 1.5-11.8 4.2-.1-.4-.3-.7-.5-1.1-1.6-2.7-5.2-3.1-8.1-3.2-3.3-.1-6.6.6-9.6 2.1.2-1.7-.2-3.5-1.3-4.9-1.4-1.9-3.8-3-7.1-3.4-.6-.1-1.4-.1-2.2-.1H37.6L21.4 44.6h14.8l2.7-5c-.3 1.1-.1 2.4.5 3.4.7 1.1 1.9 1.7 3.2 1.7h12.2c.9.4 1.9.5 2.9.5 2.4 0 4.8-.5 6.9-1.5.8.6 1.9.9 2.9.9H80c.9.2 1.8.4 2.7.5h.1c4.8.2 9.5-1.7 12.8-5.1.2.4.3.8.6 1.2 1.5 2.5 4.3 3.9 7.8 3.9h.1c3.5.1 7-.9 10-2.7l-1.2 2.3h26.5s4-8.4 5.1-10.6c1.2-2.2 1.2-2.4 3.2-2.5l-1.2 2.1c-.9 1.6-1.9 3.6-1.7 5.7.1 1.6.9 3.1 2.2 4.1.3.2.5.4.8.5 1.1.6 2.4.9 3.6.9 2.4 0 4.8-.5 6.9-1.5.8.7 1.9 1.1 3 1.1h11c1.4.3 2.8.4 4.3.4h.3c6.4 0 12.2-3.5 16-9.6 1.1-1.7 2-3.5 2.7-5.3 1.3-3.5.4-5.9-.2-7.1z"/><path class="st3" d="M154.8 22c-2.9-.4-5.9 0-8.6 1.3-.1.1.5-1.1.5-1.1H140l-9.5 19.5h7.1s4.8-10.3 5.9-11.7c1.9-2.4 3-2.7 8.6-2.7l2.7-5.3zm38.2 4.3c0-.4-.1-.7-.1-1.1-.8-2.1-3.5-3.1-5.9-3.1-5.5 0-11.2 2.8-14.8 9.5-3.5 6.4-1.1 10.4 4.1 10.6h.5c4.5-.1 9.6-2.3 13.3-8.1h-6.5c-1 1.6-2.6 2.7-4.5 2.9-2 0-2.2-1.6-.6-4.6.4-.8.9-1.5 1.5-2.2 1-1.6 2.2-2.9 4.1-3 .6-.1 1.2.2 1.6.7l.2.2c.2.5.3 1 .1 1.6h6.3c.2-.4.4-.8.5-1.2.1-.8.2-1.5.2-2.2zM51.4 29.5c2.4-.6 4.7-1.9 6.4-3.8.7-.7 1.2-1.5 1.6-2.3.3-.7.6-1.4.7-2.1.5-2.9-1.5-5-5.9-5.5-.7-.1-1.4-.1-2.1-.1H39.3L26 41.8h8.3l4.7-9.2h3.4c1.2.1 3 .6 1.8 3L41.9 40c-.1.3-.7 1.6.7 1.6h7.9c-.3-.7-.2-1.4.2-2l1.7-3.2.1-.2c2.4-4.8.7-5.6-1.1-6.7zm-1.5-4.6c-.4.4-.8.8-1.3 1.1-1 .5-2.1.7-3.1.6h-3.6l2.8-5.3h4c1.1 0 1.7.3 1.9.8.5.8 0 2-.7 2.8zm35.2 12c-2 0-2.2-1.6-.7-4.6 1.3-2.3 3.6-4.9 5.8-5 .6-.1 1.2.2 1.5.6.3.6.3 1.2.1 1.8h6.3c3-5.5-1.5-7.8-5.2-7.8-5.5 0-11.2 2.8-14.8 9.5-3.6 6.7-1 10.6 4.5 10.6 5.7 0 10.3-2.1 13.7-8.1h-6.8c-.9 1.8-2.6 2.8-4.4 3zm-8.2-7.2c2.5-4.6 3.1-7.6-4.3-7.7-3.4-.2-6.8.7-9.6 2.6-.2.1-.4.3-.6.4-1.1.9-2 2-2.7 3.2h6.7l.6-.6c.1-.1.2-.2.3-.2.3-.2.5-.4.8-.5.3-.1.7-.2 1.1-.3.4 0 .8 0 1.1.1.2.1.3.2.4.3.1.2.1.4 0 .7-.1.4-.4.7-.7.9-.3.2-.6.4-1 .5-.4.1-.9.2-1.3.2l-2.7.3c-.9.1-1.8.3-2.7.6-.9.3-1.7.6-2.6 1-.8.4-1.5.9-2.2 1.4-.4.3-.7.6-1.1 1-1.6 1.7-4.1 5.6-1.5 7.7.1.1.3.2.5.3.7.4 1.5.5 2.3.5 2.7 0 5.4-.7 7.6-2.3.1.2-.1 1.7 1.5 1.7h5.4c-.2-.9-.2-1.8.2-2.6l4.5-9.2zm-8.1 3.2c-1.4 2.6-3.2 4.3-5.6 4.2-.7 0-1.9-.3-1.6-1.3.4-1.4 2.5-2.1 3.7-2.3l3.5-.6zm41.3 2.4c-.9.9-2.1 1.4-3.4 1.6h-.3c-1.7 0-2.1-1.2-1.2-3.5h12.6l1.9-3.7c2.4-5.3-1.9-7.6-5.5-7.6-5.5 0-11.2 2.8-14.8 9.5-3.6 6.7-1 10.6 4.5 10.6 5.7 0 10.4-2.1 12.9-6.8l-6.7-.1zm1.9-8.7c.8 0 1.4.2 1.6.9.3.7.2 1.5-.1 2.2h-6.3c1.5-1.7 3.3-3.1 4.8-3.1zm16.3-11h17.6-17.6z"/><path class="st3" d="M136.1 21.4h6.7l3.1-5.7h-21.8l-3.1 5.7h7.2l-10.3 20.3h7.8l10.4-20.3zm34.7 8.3c2.5-4.6 3.1-7.6-4.3-7.7-3.4-.2-6.8.7-9.7 2.6-.2.1-.4.3-.6.4-1.1.9-2 2-2.7 3.2h6.7l.6-.6c.1-.1.2-.2.3-.2.3-.2.5-.4.8-.5.3-.1.7-.2 1.1-.3.4 0 .8 0 1.1.1.2.1.3.2.4.3.1.2.1.4 0 .7-.1.4-.4.7-.7.9-.3.2-.6.4-1 .5-.4.1-.9.1-1.3.1l-2.7.3c-.9.1-1.8.3-2.7.6-.9.3-1.7.6-2.6 1-.8.4-1.5.9-2.2 1.4-.4.3-.7.6-1.1 1-1.6 1.7-4.1 5.6-1.5 7.7.1.1.3.2.5.3.7.4 1.5.5 2.3.5 2.7 0 5.4-.7 7.6-2.3.1.2-.1 1.7 1.5 1.7h5.4c-.2-.9-.2-1.8.2-2.6l4.6-9.1zm-8.1 3.2c-1.4 2.6-3.2 4.3-5.6 4.2-.7 0-1.9-.3-1.6-1.3.4-1.4 2.5-2.1 3.7-2.3l3.5-.6z"/></svg>