<?xml version="1.0" encoding="utf-8"?>
<!-- Generator: Adobe Illustrator 23.1.0, SVG Export Plug-In . SVG Version: 6.00 Build 0)  -->
<svg version="1.1" id="Layer_1" xmlns="http://www.w3.org/2000/svg" xmlns:xlink="http://www.w3.org/1999/xlink" x="0px" y="0px"
	 viewBox="0 0 223.2 57.6" style="enable-background:new 0 0 223.2 57.6;" xml:space="preserve">
<style type="text/css">
	.st0{fill:#E1251B;}
	.st1{fill:#002169;}
	.st2{fill:none;}
	.st3{fill:#FFFFFF;}
</style>
<g>
	<path d="M128.2,15.6h17.6v0L128.2,15.6z"/>
	<path class="st0" d="M8.6,54.1c-1.7,0.1-3.4-0.7-4.3-2.1c-0.9-1.8-0.9-4,0.2-5.7l18.5-35.8c1.9-3.9,6.7-7,10.6-7h181
		c1.7-0.1,3.4,0.7,4.4,2.1c0.9,1.8,0.9,4-0.1,5.7l-18.5,35.8c-1.9,3.9-6.6,7-10.6,7L8.6,54.1z"/>
	<path class="st1" d="M192.4,40.1c-1.2,0-2.1,1-2.1,2.1c0,1.2,1,2.1,2.1,2.1s2.1-1,2.1-2.1C194.5,41.1,193.6,40.1,192.4,40.1z
		 M192.4,44c-0.9,0-1.7-0.8-1.7-1.7c0-0.9,0.8-1.7,1.7-1.7c0.9,0,1.7,0.8,1.7,1.7C194.1,43.2,193.4,43.9,192.4,44
		C192.4,44,192.4,44,192.4,44L192.4,44z"/>
	<path class="st1" d="M193.2,41.9c0-0.1,0-0.2-0.1-0.3c-0.1-0.1-0.2-0.2-0.3-0.2c-0.2-0.1-0.4-0.1-0.6-0.1h-0.6v2h0.4v-0.8h0.4
		l0.4,0.8h0.4l-0.4-0.9c0.1,0,0.2-0.1,0.3-0.2C193.2,42.1,193.2,42,193.2,41.9z M192.7,42.1c-0.1,0.1-0.2,0.1-0.3,0.1H192v-0.5h0.3
		c0.1,0,0.2,0,0.3,0.1c0.1,0,0.1,0.1,0.1,0.2C192.8,41.9,192.7,42,192.7,42.1L192.7,42.1z"/>
	<path class="st1" d="M195.4,22.9c-1.1-1.9-4.2-3.8-9.1-3.8h-0.1c-4.1,0-8.1,1.4-11.4,3.9c-0.1-0.2-0.2-0.4-0.3-0.6
		c-1.6-2.7-5.2-3.1-8.1-3.1c-2.4-0.1-4.8,0.3-7.1,1l-0.5-0.1c-2.1-0.8-4.3-1.2-6.5-1.1c-0.9,0-1.8,0.1-2.7,0.2h-2.9l3.5-6.4h-28.2
		l-3.9,7.2c-1.3-0.5-2.6-0.7-4-0.7c-4.7,0-9.3,1.8-12.7,5c-0.1-0.4-0.3-0.7-0.5-1.1c-1.7-2.9-5.3-3.9-8.1-3.9
		c-4.3,0-8.4,1.5-11.8,4.2c-0.1-0.4-0.3-0.7-0.5-1.1c-1.6-2.7-5.2-3.1-8.1-3.2c-3.3-0.1-6.6,0.6-9.6,2.1c0.2-1.7-0.2-3.5-1.3-4.9
		c-1.4-1.9-3.8-3-7.1-3.4C53.8,13,53,13,52.2,13H37.6L21.4,44.6h14.8l2.7-5c-0.3,1.1-0.1,2.4,0.5,3.4c0.7,1.1,1.9,1.7,3.2,1.7h12.2
		c0.9,0.4,1.9,0.5,2.9,0.5c2.4,0,4.8-0.5,6.9-1.5c0.8,0.6,1.9,0.9,2.9,0.9H80c0.9,0.2,1.8,0.4,2.7,0.5h0.1c4.8,0.2,9.5-1.7,12.8-5.1
		c0.2,0.4,0.3,0.8,0.6,1.2c1.5,2.5,4.3,3.9,7.8,3.9h0.1c3.5,0.1,7-0.9,10-2.7l-1.2,2.3h26.5c0,0,4-8.4,5.1-10.6
		c1.2-2.2,1.2-2.4,3.2-2.5l-1.2,2.1c-0.9,1.6-1.9,3.6-1.7,5.7c0.1,1.6,0.9,3.1,2.2,4.1c0.3,0.2,0.5,0.4,0.8,0.5
		c1.1,0.6,2.4,0.9,3.6,0.9c2.4,0,4.8-0.5,6.9-1.5c0.8,0.7,1.9,1.1,3,1.1h11c1.4,0.3,2.8,0.4,4.3,0.4h0.3c6.4,0,12.2-3.5,16-9.6
		c1.1-1.7,2-3.5,2.7-5.3C196.9,26.5,196,24.1,195.4,22.9L195.4,22.9z"/>
	<path class="st3" d="M154.8,22c-2.9-0.4-5.9,0-8.6,1.3c-0.1,0.1,0.5-1.1,0.5-1.1h-6.7l-9.5,19.5h7.1c0,0,4.8-10.3,5.9-11.7
		c1.9-2.4,3-2.7,8.6-2.7L154.8,22z M193,26.3c0-0.4-0.1-0.7-0.1-1.1c-0.8-2.1-3.5-3.1-5.9-3.1c-5.5,0-11.2,2.8-14.8,9.5
		c-3.5,6.4-1.1,10.4,4.1,10.6h0.5c4.5-0.1,9.6-2.3,13.3-8.1h-6.5c-1,1.6-2.6,2.7-4.5,2.9c-2,0-2.2-1.6-0.6-4.6
		c0.4-0.8,0.9-1.5,1.5-2.2c1-1.6,2.2-2.9,4.1-3c0.6-0.1,1.2,0.2,1.6,0.7c0.1,0.1,0.1,0.1,0.2,0.2c0.2,0.5,0.3,1,0.1,1.6h6.3
		c0.2-0.4,0.4-0.8,0.5-1.2C192.9,27.7,193,27,193,26.3C193,26.3,193,26.3,193,26.3L193,26.3z M51.4,29.5c2.4-0.6,4.7-1.9,6.4-3.8
		c0.7-0.7,1.2-1.5,1.6-2.3c0.3-0.7,0.6-1.4,0.7-2.1c0.5-2.9-1.5-5-5.9-5.5c-0.7-0.1-1.4-0.1-2.1-0.1H39.3L26,41.8h8.3l4.7-9.2h3.4
		c1.2,0.1,3,0.6,1.8,3L41.9,40c-0.1,0.3-0.7,1.6,0.7,1.6h7.9c-0.3-0.7-0.2-1.4,0.2-2l1.7-3.2l0.1-0.2C54.9,31.4,53.2,30.6,51.4,29.5
		z M49.9,24.9c-0.4,0.4-0.8,0.8-1.3,1.1c-1,0.5-2.1,0.7-3.1,0.6h-3.6l2.8-5.3h4c1.1,0,1.7,0.3,1.9,0.8
		C51.1,22.9,50.6,24.1,49.9,24.9z M85.1,36.9c-2,0-2.2-1.6-0.7-4.6c1.3-2.3,3.6-4.9,5.8-5c0.6-0.1,1.2,0.2,1.5,0.6
		c0.3,0.6,0.3,1.2,0.1,1.8h6.3c3-5.5-1.5-7.8-5.2-7.8c-5.5,0-11.2,2.8-14.8,9.5c-3.6,6.7-1,10.6,4.5,10.6c5.7,0,10.3-2.1,13.7-8.1
		h-6.8C88.6,35.7,86.9,36.7,85.1,36.9z M76.9,29.7c2.5-4.6,3.1-7.6-4.3-7.7c-3.4-0.2-6.8,0.7-9.6,2.6c-0.2,0.1-0.4,0.3-0.6,0.4
		c-1.1,0.9-2,2-2.7,3.2h6.7c0.1-0.1,0.4-0.4,0.6-0.6c0.1-0.1,0.2-0.2,0.3-0.2c0.3-0.2,0.5-0.4,0.8-0.5c0.3-0.1,0.7-0.2,1.1-0.3
		c0.4,0,0.8,0,1.1,0.1c0.2,0.1,0.3,0.2,0.4,0.3c0.1,0.2,0.1,0.4,0,0.7c-0.1,0.4-0.4,0.7-0.7,0.9c-0.3,0.2-0.6,0.4-1,0.5
		c-0.4,0.1-0.9,0.2-1.3,0.2c-0.9,0.1-1.8,0.2-2.7,0.3c-0.9,0.1-1.8,0.3-2.7,0.6c-0.9,0.3-1.7,0.6-2.6,1c-0.8,0.4-1.5,0.9-2.2,1.4
		c-0.4,0.3-0.7,0.6-1.1,1c-1.6,1.7-4.1,5.6-1.5,7.7c0.1,0.1,0.3,0.2,0.5,0.3c0.7,0.4,1.5,0.5,2.3,0.5c2.7,0,5.4-0.7,7.6-2.3
		c0.1,0.2-0.1,1.7,1.5,1.7h5.4c-0.2-0.9-0.2-1.8,0.2-2.6L76.9,29.7z M68.8,32.9c-1.4,2.6-3.2,4.3-5.6,4.2c-0.7,0-1.9-0.3-1.6-1.3
		c0.4-1.4,2.5-2.1,3.7-2.3L68.8,32.9L68.8,32.9L68.8,32.9z M110.1,35.3c-0.9,0.9-2.1,1.4-3.4,1.6h-0.3c-1.7,0-2.1-1.2-1.2-3.5h12.6
		l1.9-3.7c2.4-5.3-1.9-7.6-5.5-7.6c-5.5,0-11.2,2.8-14.8,9.5c-3.6,6.7-1,10.6,4.5,10.6c5.7,0,10.4-2.1,12.9-6.8L110.1,35.3
		L110.1,35.3z M112,26.6c0.8,0,1.4,0.2,1.6,0.9c0.3,0.7,0.2,1.5-0.1,2.2h-6.3C108.7,28,110.5,26.6,112,26.6z M128.3,15.6h17.6v0
		L128.3,15.6z"/>
	<path class="st3" d="M136.1,21.4h6.7l3.1-5.7l-21.8,0l-3.1,5.7h7.2l0,0h0l-10.3,20.3h7.8C125.7,41.7,136.1,21.4,136.1,21.4z
		 M170.8,29.7c2.5-4.6,3.1-7.6-4.3-7.7c-3.4-0.2-6.8,0.7-9.7,2.6c-0.2,0.1-0.4,0.3-0.6,0.4c-1.1,0.9-2,2-2.7,3.2h6.7
		c0.1-0.1,0.4-0.4,0.6-0.6c0.1-0.1,0.2-0.2,0.3-0.2c0.3-0.2,0.5-0.4,0.8-0.5c0.3-0.1,0.7-0.2,1.1-0.3c0.4,0,0.8,0,1.1,0.1
		c0.2,0.1,0.3,0.2,0.4,0.3c0.1,0.2,0.1,0.4,0,0.7c-0.1,0.4-0.4,0.7-0.7,0.9c-0.3,0.2-0.6,0.4-1,0.5c-0.4,0.1-0.9,0.1-1.3,0.1
		c-0.9,0.1-1.8,0.2-2.7,0.3c-0.9,0.1-1.8,0.3-2.7,0.6c-0.9,0.3-1.7,0.6-2.6,1c-0.8,0.4-1.5,0.9-2.2,1.4c-0.4,0.3-0.7,0.6-1.1,1
		c-1.6,1.7-4.1,5.6-1.5,7.7c0.1,0.1,0.3,0.2,0.5,0.3c0.7,0.4,1.5,0.5,2.3,0.5c2.7,0,5.4-0.7,7.6-2.3c0.1,0.2-0.1,1.7,1.5,1.7h5.4
		c-0.2-0.9-0.2-1.8,0.2-2.6L170.8,29.7z M162.7,32.9c-1.4,2.6-3.2,4.3-5.6,4.2c-0.7,0-1.9-0.3-1.6-1.3c0.4-1.4,2.5-2.1,3.7-2.3
		L162.7,32.9L162.7,32.9z"/>
</g>
</svg>
